<?xml version="1.0" encoding="utf-8"?>
<!-- Generator: Adobe Illustrator 22.1.0, SVG Export Plug-In . SVG Version: 6.00 Build 0)  -->
<svg version="1.1" id="Layer_1" xmlns="http://www.w3.org/2000/svg" xmlns:xlink="http://www.w3.org/1999/xlink" x="0px" y="0px"
	 viewBox="0 0 512 512" style="enable-background:new 0 0 512 512;" xml:space="preserve">
<path d="M491.3,461.8L356.1,325.4c26.5-33.2,42.4-75.2,42.4-120.9c0-106.9-86.7-193.6-193.8-193.6S11,97.7,11,204.7
	s86.7,193.6,193.8,193.6c46.3,0,88.7-16.2,122.1-43.3l134.3,135.5c4,4.3,9.6,6.5,15.1,6.5c5.2,0,10.4-1.9,14.3-5.7
	C498.9,483.3,499.1,470.2,491.3,461.8z M204.8,356.7c-40.6,0-78.8-15.8-107.6-44.5s-44.5-66.9-44.5-107.4
	c0-40.6,15.8-78.8,44.5-107.4c28.7-28.7,66.9-44.5,107.6-44.5s78.8,15.8,107.6,44.5s44.5,66.9,44.5,107.4
	c0,40.6-15.8,78.8-44.5,107.4C283.6,340.8,245.4,356.7,204.8,356.7z"/>
<g>
	<path d="M218,100.2v91.4h87.9v23.3H218V307h-24.9v-92.2h-87.9v-23.3h87.9v-91.4H218z"/>
</g>
</svg>
